<?xml version="1.0" encoding="UTF-8" standalone="no"?>
<!-- Created with Inkscape (http://www.inkscape.org/) -->

<svg
   width="600"
   height="400"
   viewBox="0 0 158.75 105.83333"
   version="1.1"
   id="svg1"
   inkscape:version="1.3.2 (091e20e, 2023-11-25)"
   sodipodi:docname="pizza_logo.svg"
   xmlns:inkscape="http://www.inkscape.org/namespaces/inkscape"
   xmlns:sodipodi="http://sodipodi.sourceforge.net/DTD/sodipodi-0.dtd"
   xmlns="http://www.w3.org/2000/svg"
   xmlns:svg="http://www.w3.org/2000/svg">
  <sodipodi:namedview
     id="namedview1"
     pagecolor="#ffffff"
     bordercolor="#000000"
     borderopacity="0.25"
     inkscape:showpageshadow="2"
     inkscape:pageopacity="0.0"
     inkscape:pagecheckerboard="0"
     inkscape:deskcolor="#d1d1d1"
     inkscape:document-units="mm"
     showguides="false"
     inkscape:zoom="0.97072637"
     inkscape:cx="249.81293"
     inkscape:cy="213.75746"
     inkscape:window-width="1440"
     inkscape:window-height="792"
     inkscape:window-x="0"
     inkscape:window-y="25"
     inkscape:window-maximized="1"
     inkscape:current-layer="layer1" />
  <defs
     id="defs1">
    <rect
       x="174.49968"
       y="167.78816"
       width="510.07599"
       height="320.81094"
       id="rect2" />
    <rect
       x="267.71689"
       y="375.7861"
       width="429.82068"
       height="174.38438"
       id="rect1" />
    <rect
       x="174.49968"
       y="167.78816"
       width="510.07599"
       height="320.81094"
       id="rect6" />
  </defs>
  <g
     inkscape:label="Layer 1"
     inkscape:groupmode="layer"
     id="layer1">
    <text
       xml:space="preserve"
       transform="matrix(0.26458333,0,0,0.26458333,10.475674,-7.0212191)"
       id="text2"
       style="font-style:normal;font-variant:normal;font-weight:normal;font-stretch:normal;font-size:74.6667px;line-height:0.8;font-family:'Black Ops One';-inkscape-font-specification:'Black Ops One, Normal';font-variant-ligatures:normal;font-variant-caps:normal;font-variant-numeric:normal;font-variant-east-asian:normal;text-align:center;white-space:pre;shape-inside:url(#rect2);display:none;fill:#ffffff;stroke:#000000;stroke-width:4;stroke-linejoin:round;paint-order:markers fill stroke"
       x="329.87756"
       y="0"
       inkscape:label="text spare"><tspan
         x="174.5"
         y="222.33372"
         id="tspan6"><tspan
           style="font-family:'Changa One';-inkscape-font-specification:'Changa One, Normal';text-align:justify;fill:#000000;stroke:none"
           id="tspan3">SMECKO'S
</tspan></tspan><tspan
         x="174.5"
         y="289.50755"
         id="tspan8"><tspan
           style="font-family:'Changa One';-inkscape-font-specification:'Changa One, Normal';text-align:justify;fill:#000000;stroke:none"
           id="tspan7">PIZZA</tspan></tspan></text>
    <ellipse
       style="fill:#35c713;stroke-width:1.10396;stroke-linejoin:round;paint-order:markers fill stroke;fill-opacity:1"
       id="path1"
       cx="79.476425"
       cy="53.031399"
       rx="79.335091"
       ry="52.790432" />
    <ellipse
       style="fill:#ffffff;fill-opacity:1;stroke-width:1.00965;stroke-linejoin:round;paint-order:markers fill stroke"
       id="ellipse1"
       cx="79.476425"
       cy="53.031399"
       rx="74.42897"
       ry="47.066624" />
    <ellipse
       style="display:none;fill:#35c713;fill-opacity:1;stroke-width:1.10396;stroke-linejoin:round;paint-order:markers fill stroke"
       id="ellipse2"
       cx="79.476425"
       cy="53.031399"
       rx="79.335091"
       ry="52.790432" />
    <path
       id="path2"
       style="fill:#ce0827;fill-opacity:1;stroke-width:1.20049;stroke-linejoin:round;paint-order:markers fill stroke"
       d="m 43.362211,20.528982 a 23.439971,9.056357 0 0 0 -23.439912,9.056811 23.439971,9.056357 0 0 0 5.391918,5.754171 L 43.505355,86.587482 61.74972,35.190619 a 23.439971,9.056357 0 0 0 5.052921,-5.604826 23.439971,9.056357 0 0 0 -23.44043,-9.056811 z m 0.460954,11.88868 a 3.8964264,4.0522833 0 0 1 3.896403,4.052466 3.8964264,4.0522833 0 0 1 -3.896403,4.052465 3.8964264,4.0522833 0 0 1 -3.896403,-4.052465 3.8964264,4.0522833 0 0 1 3.896403,-4.052466 z M 37.70881,45.507819 a 3.8964264,4.0522833 0 0 1 3.896403,4.052466 3.8964264,4.0522833 0 0 1 -3.896403,4.051949 3.8964264,4.0522833 0 0 1 -3.896403,-4.051949 3.8964264,4.0522833 0 0 1 3.896403,-4.052466 z m 11.641666,0 a 3.8964264,4.0522833 0 0 1 3.896403,4.052466 3.8964264,4.0522833 0 0 1 -3.896403,4.051949 3.8964264,4.0522833 0 0 1 -3.896403,-4.051949 3.8964264,4.0522833 0 0 1 3.896403,-4.052466 z m -5.527311,13.368176 a 3.8964264,4.0522833 0 0 1 3.896403,4.052466 3.8964264,4.0522833 0 0 1 -3.896403,4.052466 3.8964264,4.0522833 0 0 1 -3.896403,-4.052466 3.8964264,4.0522833 0 0 1 3.896403,-4.052466 z"
       inkscape:label="pizza" />
    <path
       style="font-size:74.6667px;line-height:0.8;font-family:'Changa One';-inkscape-font-specification:'Changa One, Normal';text-align:justify;white-space:pre;stroke-width:1.05833;stroke-linejoin:round;paint-order:markers fill stroke"
       d="m 59.78519,52.645603 0.553156,-3.259669 q 1.81751,0.45438 3.259667,0.45438 1.461913,0 2.350913,-0.118534 v -0.987779 l -1.778,-0.158044 q -2.41018,-0.217313 -3.318936,-1.145823 -0.889,-0.948267 -0.889,-2.785536 0,-2.52871 1.086556,-3.476979 1.10631,-0.948267 3.7338,-0.948267 2.62749,0 4.741336,0.49389 l -0.49389,3.16089 q -1.837266,-0.296334 -2.943576,-0.296334 -1.106313,0 -1.87678,0.09878 v 0.96802 l 1.4224,0.13829 q 2.587979,0.256823 3.575756,1.2446 0.98778,0.968023 0.98778,2.706513 0,1.2446 -0.335844,2.113846 -0.335846,0.84949 -0.809979,1.303867 -0.454377,0.434623 -1.303867,0.671689 -0.84949,0.237067 -1.501423,0.276577 -0.632179,0.05927 -1.698979,0.05927 -2.568224,0 -4.76109,-0.513644 z m 15.527866,0.217311 h -4.128913 l 0.750711,-12.347229 h 5.156202 l 1.540934,6.28227 h 0.138289 l 1.540934,-6.28227 h 5.156202 l 0.750713,12.347229 h -4.128913 l -0.237066,-5.985936 h -0.13829 l -1.501423,5.985936 h -3.0226 l -1.52118,-5.985936 h -0.118533 z m 20.288983,-4.662313 h -3.951113 v 1.501423 h 4.840113 v 3.16089 H 87.699813 V 40.515685 h 8.692446 l -0.493887,3.160893 h -4.247446 v 1.659466 h 3.951113 z m 10.766811,1.126066 0.29633,3.318936 q -1.2446,0.513644 -3.12138,0.513644 -1.87678,0 -3.02262,-0.39511 -1.126061,-0.395113 -1.777997,-1.2446 -0.651933,-0.84949 -0.908754,-1.995313 -0.256823,-1.145823 -0.256823,-2.825046 0,-1.679223 0.256823,-2.825046 0.256821,-1.165577 0.908754,-2.015067 1.264357,-1.639713 4.642577,-1.639713 0.75071,0 1.75824,0.158046 1.02729,0.138287 1.52118,0.3556 l -0.59267,3.0226 q -1.28411,-0.276577 -2.35091,-0.276577 -1.0668,0 -1.48167,0.197557 -0.41487,0.197554 -0.41487,0.79022 v 5.175959 q 0.77047,0.158044 1.5607,0.158044 1.67922,0 2.98309,-0.474134 z m 5.63034,-1.837266 v 5.373513 h -3.95112 V 40.515685 h 3.95112 v 5.03767 h 0.079 q 0.0395,-0.592667 0.19755,-0.948267 l 1.93605,-4.089403 h 4.2672 l -2.96334,6.064959 3.06212,6.28227 h -4.2672 l -2.03483,-4.425247 q -0.15804,-0.3556 -0.19755,-0.948266 z m 7.17127,-0.790223 q 0,-3.378203 1.26436,-4.919136 1.26436,-1.56069 4.56353,-1.56069 3.29918,0 4.56354,1.56069 1.26436,1.540933 1.26436,4.919136 0,1.679223 -0.27658,2.825046 -0.25682,1.145823 -0.90876,1.995313 -0.65193,0.849487 -1.79775,1.2446 -1.14583,0.39511 -2.84481,0.39511 -1.69897,0 -2.8448,-0.39511 -1.14582,-0.395113 -1.79775,-1.2446 -0.65194,-0.84949 -0.92851,-1.995313 -0.25683,-1.145823 -0.25683,-2.825046 z m 4.24745,-2.05458 v 5.136449 h 1.63971 q 0.80998,0 1.16558,-0.1778 0.37536,-0.197556 0.37536,-0.869246 v -5.136446 h -1.65947 q -0.79022,0 -1.16558,0.197556 -0.3556,0.1778 -0.3556,0.849487 z m 11.26065,2.291646 h -1.97555 q -0.98778,-5.156202 -0.98778,-5.235225 v -1.145821 q 0,-0.5334 0.73095,-0.5334 h 2.4892 q 0.73096,0 0.73096,0.5334 v 1.145821 q 0,0.07902 -0.98778,5.235225 z m 1.97556,5.709359 0.55316,-3.259669 q 1.81751,0.45438 3.25967,0.45438 1.46191,0 2.35091,-0.118534 v -0.987779 l -1.778,-0.158044 q -2.41018,-0.217313 -3.31894,-1.145823 -0.889,-0.948267 -0.889,-2.785536 0,-2.52871 1.08656,-3.476979 1.10631,-0.948267 3.7338,-0.948267 2.62749,0 4.74134,0.49389 l -0.49389,3.16089 q -1.83727,-0.296334 -2.94358,-0.296334 -1.10631,0 -1.87678,0.09878 v 0.96802 l 1.4224,0.13829 q 2.58798,0.256823 3.57576,1.2446 0.98778,0.968023 0.98778,2.706513 0,1.2446 -0.33585,2.113846 -0.33584,0.84949 -0.80998,1.303867 -0.45437,0.434623 -1.30386,0.671689 -0.84949,0.237067 -1.50143,0.276577 -0.63218,0.05927 -1.69898,0.05927 -2.56822,0 -4.76109,-0.513644 z M 66.798416,67.652899 h -2.568224 v 2.98309 H 60.27908 V 58.288761 h 6.223002 q 4.247446,0 4.247446,4.563536 0,2.508956 -1.106313,3.714046 -0.414866,0.454377 -1.145823,0.770467 -0.730953,0.316089 -1.698976,0.316089 z m -2.568224,-6.203248 v 3.042359 h 0.908754 q 0.711203,0 1.02729,-0.13829 0.335846,-0.158046 0.335846,-0.691446 v -1.38289 q 0,-0.5334 -0.335846,-0.671687 -0.316087,-0.158046 -1.02729,-0.158046 z m 7.704672,9.186338 V 58.288761 h 3.951113 v 12.347228 z m 16.081015,0 H 77.367631 v -2.469446 l 5.057425,-6.598359 -0.05927,-0.118533 h -4.14867 l -0.3556,-3.16089 h 10.075339 v 2.469446 l -4.998159,6.598359 0.05927,0.118533 h 5.017913 z m 11.636042,0 H 89.003672 v -2.469446 l 5.057423,-6.598359 -0.05927,-0.118533 h -4.148666 l -0.3556,-3.16089 h 10.075336 v 2.469446 l -4.998157,6.598359 0.05927,0.118533 h 5.017913 z m 4.425279,0 h -4.168443 l 3.200413,-12.347228 h 6.10447 l 3.2004,12.347228 h -4.16842 l -0.45438,-1.9558 h -3.25967 z m 1.97555,-8.554159 -0.80998,3.457223 h 1.81751 l -0.79022,-3.457223 z"
       id="text6"
       aria-label="SMECKO'S&#10;PIZZA"
       inkscape:label="text merged" />
  </g>
</svg>
